<?xml version="1.0" encoding="UTF-8" standalone="no"?><!DOCTYPE svg PUBLIC "-//W3C//DTD SVG 1.1//EN" "http://www.w3.org/Graphics/SVG/1.1/DTD/svg11.dtd"><svg width="100%" height="100%" viewBox="0 0 7875 5560" version="1.1" xmlns="http://www.w3.org/2000/svg" xmlns:xlink="http://www.w3.org/1999/xlink" xml:space="preserve" xmlns:serif="http://www.serif.com/" style="fill-rule:evenodd;clip-rule:evenodd;stroke-linecap:round;stroke-linejoin:round;stroke-miterlimit:1.5;"><g><path d="M4219.78,2303.75c-52.193,-575.042 141.907,-788.482 397.887,-763.613c243.025,23.611 427.257,106.675 388.234,914.086" style="fill:none;stroke:#81cee0;stroke-width:116.67px;"/><path d="M2505.92,3069.29c14.212,113.151 -122.361,902.204 351.625,911.717c150.994,3.031 484.114,-17.975 413.402,-765.71" style="fill:none;stroke:#b4e25c;stroke-width:116.67px;"/><ellipse cx="2878.17" cy="3516.4" rx="107.567" ry="115.282" style="fill:#b4e25c;fill-opacity:0;stroke:#b4e25c;stroke-width:116.67px;"/><path d="M2878.17,3379.99c9.512,-821.622 -50.041,-1297.49 79.536,-1344.63c120.207,-43.734 252.925,150.709 555.678,489.613" style="fill:none;stroke:#b4e25c;stroke-width:116.67px;"/><ellipse cx="3737.01" cy="2762.82" rx="85.488" ry="91.619" style="fill:#b4e25c;stroke:#b4e25c;stroke-width:116.67px;"/><ellipse cx="4985.36" cy="2762.82" rx="85.488" ry="91.619" style="fill:#81cee0;stroke:#81cee0;stroke-width:116.67px;"/><path d="M3931.47,2969.75c362.072,382.068 497.994,559.345 614.323,481.022c139.761,-94.1 78.073,-505.158 60.185,-1251.31" style="fill:none;stroke:#81cee0;stroke-width:116.67px;"/><ellipse cx="4617.66" cy="2006.55" rx="139.136" ry="149.114" style="fill:#81cee0;fill-opacity:0;stroke:#81cee0;stroke-width:116.67px;"/><path d="M3276.75,2784.46c591.418,640.319 958.519,1176.65 1237.16,1194.26c328.275,20.742 564.786,-114.472 471.444,-1124.28" style="fill:none;stroke:#81cee0;stroke-width:116.67px;"/><ellipse cx="2494.32" cy="2762.82" rx="138.139" ry="148.046" style="fill:#b4e25c;stroke:#b4e25c;stroke-width:116.67px;"/><path d="M2494.32,2762.82c12.591,-715.081 -94.553,-1004.06 242.708,-1185.51c96.522,-51.929 260.876,-79.678 376.612,5.724c279.554,206.283 551.186,588.021 1117.61,1179.78" style="fill:none;stroke:#b4e25c;stroke-width:116.67px;"/></g></svg>